<?xml version="1.0" encoding="UTF-8"?>
<!DOCTYPE svg PUBLIC "-//W3C//DTD SVG 1.1//EN" "http://www.w3.org/Graphics/SVG/1.1/DTD/svg11.dtd">
<svg xmlns="http://www.w3.org/2000/svg" version="1.1" width="512px" height="512px" style="shape-rendering:geometricPrecision; text-rendering:geometricPrecision; image-rendering:optimizeQuality; fill-rule:evenodd; clip-rule:evenodd" xmlns:xlink="http://www.w3.org/1999/xlink">
<g><path style="opacity:0.655" fill="#a2afb5" d="M 470.5,211.5 C 439.5,211.5 408.5,211.5 377.5,211.5C 377.5,183.5 377.5,155.5 377.5,127.5C 278.167,127.5 178.833,127.5 79.5,127.5C 79.5,159.833 79.5,192.167 79.5,224.5C 91.5,224.5 103.5,224.5 115.5,224.5C 115.5,248.5 115.5,272.5 115.5,296.5C 92.8333,296.5 70.1667,296.5 47.5,296.5C 69.6604,295.503 91.9938,295.169 114.5,295.5C 114.5,272.167 114.5,248.833 114.5,225.5C 102.5,225.5 90.5,225.5 78.5,225.5C 78.5,192.5 78.5,159.5 78.5,126.5C 178.5,126.5 278.5,126.5 378.5,126.5C 378.5,154.5 378.5,182.5 378.5,210.5C 409.338,210.169 440.005,210.502 470.5,211.5 Z M 111.5,142.5 C 195.167,142.5 278.833,142.5 362.5,142.5C 362.5,161.167 362.5,179.833 362.5,198.5C 279.833,198.5 197.167,198.5 114.5,198.5C 117.481,179.611 116.481,160.945 111.5,142.5 Z"/></g>
<g><path style="opacity:1" fill="#fdfdfd" d="M 470.5,211.5 C 470.5,244.167 470.5,276.833 470.5,309.5C 466.5,309.5 462.5,309.5 458.5,309.5C 457.502,332.327 457.169,355.327 457.5,378.5C 320.833,378.5 184.167,378.5 47.5,378.5C 47.5,351.167 47.5,323.833 47.5,296.5C 70.1667,296.5 92.8333,296.5 115.5,296.5C 115.5,272.5 115.5,248.5 115.5,224.5C 103.5,224.5 91.5,224.5 79.5,224.5C 79.5,192.167 79.5,159.833 79.5,127.5C 178.833,127.5 278.167,127.5 377.5,127.5C 377.5,155.5 377.5,183.5 377.5,211.5C 408.5,211.5 439.5,211.5 470.5,211.5 Z M 111.5,142.5 C 195.167,142.5 278.833,142.5 362.5,142.5C 362.5,161.167 362.5,179.833 362.5,198.5C 279.833,198.5 197.167,198.5 114.5,198.5C 117.481,179.611 116.481,160.945 111.5,142.5 Z M 160.5,228.5 C 258.167,228.5 355.833,228.5 453.5,228.5C 453.5,244.5 453.5,260.5 453.5,276.5C 358.167,276.5 262.833,276.5 167.5,276.5C 169.908,259.752 167.574,243.752 160.5,228.5 Z M 89.5,312.5 C 206.833,312.5 324.167,312.5 441.5,312.5C 441.5,325.5 441.5,338.5 441.5,351.5C 325.5,351.5 209.5,351.5 93.5,351.5C 95.7382,338.067 94.4049,325.067 89.5,312.5 Z"/></g>
<g><path style="opacity:0.286" fill="#91a0a5" d="M 110.5,141.5 C 194.833,141.5 279.167,141.5 363.5,141.5C 363.831,164.673 363.498,187.673 362.5,210.5C 362.5,206.5 362.5,202.5 362.5,198.5C 362.5,179.833 362.5,161.167 362.5,142.5C 278.833,142.5 195.167,142.5 111.5,142.5C 110.833,142.5 110.5,142.167 110.5,141.5 Z"/></g>
<g><path style="opacity:0.973" fill="#75b800" d="M 110.5,141.5 C 110.5,142.167 110.833,142.5 111.5,142.5C 116.481,160.945 117.481,179.611 114.5,198.5C 197.167,198.5 279.833,198.5 362.5,198.5C 362.5,202.5 362.5,206.5 362.5,210.5C 272.833,210.5 183.167,210.5 93.5,210.5C 93.5,187.5 93.5,164.5 93.5,141.5C 99.1667,141.5 104.833,141.5 110.5,141.5 Z"/></g>
<g><path style="opacity:0.96" fill="#75b800" d="M 159.5,227.5 C 159.5,228.167 159.833,228.5 160.5,228.5C 167.574,243.752 169.908,259.752 167.5,276.5C 262.833,276.5 358.167,276.5 453.5,276.5C 453.5,281.833 453.5,287.167 453.5,292.5C 346.167,292.5 238.833,292.5 131.5,292.5C 131.5,270.833 131.5,249.167 131.5,227.5C 140.833,227.5 150.167,227.5 159.5,227.5 Z"/></g>
<g><path style="opacity:0.855" fill="#93aaa8" d="M 159.5,227.5 C 257.833,227.5 356.167,227.5 454.5,227.5C 454.831,249.34 454.497,271.006 453.5,292.5C 453.5,287.167 453.5,281.833 453.5,276.5C 453.5,260.5 453.5,244.5 453.5,228.5C 355.833,228.5 258.167,228.5 160.5,228.5C 159.833,228.5 159.5,228.167 159.5,227.5 Z"/></g>
<g><path style="opacity:0.997" fill="#75b900" d="M 64.5,312.5 C 72.8333,312.5 81.1667,312.5 89.5,312.5C 94.4049,325.067 95.7382,338.067 93.5,351.5C 209.5,351.5 325.5,351.5 441.5,351.5C 441.5,354.833 441.5,358.167 441.5,361.5C 315.833,361.5 190.167,361.5 64.5,361.5C 64.5,345.167 64.5,328.833 64.5,312.5 Z"/></g>
<g><path style="opacity:1" fill="#66a217" d="M 64.5,312.5 C 64.5,328.833 64.5,345.167 64.5,361.5C 190.167,361.5 315.833,361.5 441.5,361.5C 315.668,362.5 189.668,362.833 63.5,362.5C 63.1702,345.658 63.5035,328.992 64.5,312.5 Z"/></g>
<g><path style="opacity:0.506" fill="#9caab1" d="M 458.5,309.5 C 458.5,332.833 458.5,356.167 458.5,379.5C 321.332,379.833 184.332,379.5 47.5,378.5C 184.167,378.5 320.833,378.5 457.5,378.5C 457.169,355.327 457.502,332.327 458.5,309.5 Z"/></g>
</svg>
