<?xml version="1.0" encoding="UTF-8"?>
<!DOCTYPE svg PUBLIC "-//W3C//DTD SVG 1.1//EN" "http://www.w3.org/Graphics/SVG/1.1/DTD/svg11.dtd">
<svg xmlns="http://www.w3.org/2000/svg" version="1.1" width="512px" height="512px" style="shape-rendering:geometricPrecision; text-rendering:geometricPrecision; image-rendering:optimizeQuality; fill-rule:evenodd; clip-rule:evenodd" xmlns:xlink="http://www.w3.org/1999/xlink">
<g><path style="opacity:0.981" fill="#0b2d3e" d="M 78.5,126.5 C 178.5,126.5 278.5,126.5 378.5,126.5C 378.5,154.5 378.5,182.5 378.5,210.5C 409.167,210.5 439.833,210.5 470.5,210.5C 470.5,243.5 470.5,276.5 470.5,309.5C 466.5,309.5 462.5,309.5 458.5,309.5C 458.5,332.833 458.5,356.167 458.5,379.5C 321.5,379.5 184.5,379.5 47.5,379.5C 47.5,351.5 47.5,323.5 47.5,295.5C 69.8333,295.5 92.1667,295.5 114.5,295.5C 114.5,272.167 114.5,248.833 114.5,225.5C 102.5,225.5 90.5,225.5 78.5,225.5C 78.5,192.5 78.5,159.5 78.5,126.5 Z M 111.5,142.5 C 195.167,142.5 278.833,142.5 362.5,142.5C 362.5,161.167 362.5,179.833 362.5,198.5C 279.833,198.5 197.167,198.5 114.5,198.5C 117.481,179.611 116.481,160.945 111.5,142.5 Z M 160.5,228.5 C 258.167,228.5 355.833,228.5 453.5,228.5C 453.5,244.5 453.5,260.5 453.5,276.5C 358.167,276.5 262.833,276.5 167.5,276.5C 169.908,259.752 167.574,243.752 160.5,228.5 Z M 89.5,312.5 C 206.833,312.5 324.167,312.5 441.5,312.5C 441.5,325.5 441.5,338.5 441.5,351.5C 325.5,351.5 209.5,351.5 93.5,351.5C 95.7382,338.067 94.4049,325.067 89.5,312.5 Z"/></g>
<g><path style="opacity:0.973" fill="#75b800" d="M 111.5,142.5 C 116.481,160.945 117.481,179.611 114.5,198.5C 197.167,198.5 279.833,198.5 362.5,198.5C 363.483,202.298 363.817,206.298 363.5,210.5C 273.5,210.5 183.5,210.5 93.5,210.5C 93.5,187.5 93.5,164.5 93.5,141.5C 99.5907,141.211 105.591,141.545 111.5,142.5 Z"/></g>
<g><path style="opacity:0.96" fill="#75b800" d="M 160.5,228.5 C 167.574,243.752 169.908,259.752 167.5,276.5C 262.833,276.5 358.167,276.5 453.5,276.5C 453.5,281.833 453.5,287.167 453.5,292.5C 346.167,292.5 238.833,292.5 131.5,292.5C 131.5,270.833 131.5,249.167 131.5,227.5C 141.25,227.194 150.916,227.527 160.5,228.5 Z"/></g>
<g><path style="opacity:0.997" fill="#75b900" d="M 64.5,312.5 C 72.8333,312.5 81.1667,312.5 89.5,312.5C 94.4049,325.067 95.7382,338.067 93.5,351.5C 209.5,351.5 325.5,351.5 441.5,351.5C 441.5,354.833 441.5,358.167 441.5,361.5C 315.833,361.5 190.167,361.5 64.5,361.5C 64.5,345.167 64.5,328.833 64.5,312.5 Z"/></g>
<g><path style="opacity:1" fill="#629f0d" d="M 64.5,312.5 C 64.5,328.833 64.5,345.167 64.5,361.5C 190.167,361.5 315.833,361.5 441.5,361.5C 315.668,362.5 189.668,362.833 63.5,362.5C 63.1702,345.658 63.5035,328.992 64.5,312.5 Z"/></g>
</svg>
